<svg width="734" height="352" viewBox="0 0 734 352" fill="none" xmlns="http://www.w3.org/2000/svg">
    <path d="M718.592 334.032C717.571 334.053 716.584 334.4 715.776 335.023C713.375 328.679 709.659 324.602 705.484 324.602C701.309 324.602 697.593 328.679 695.193 335.023C694.384 334.4 693.397 334.053 692.376 334.032C687.634 334.032 683.789 342.053 683.789 351.948H727.18C727.18 342.053 723.335 334.032 718.592 334.032Z" fill="#FCAB10"/>
    <path d="M625.229 4.85327H415.739V0.535522H320.748V4.85327H110.395C108.534 4.85327 106.691 5.21979 104.972 5.93192C103.253 6.64404 101.691 7.68785 100.375 9.00369C99.0591 10.3195 98.0154 11.8817 97.3032 13.6009C96.5911 15.3201 96.2246 17.1628 96.2246 19.0237V305.879C96.2246 309.638 97.7175 313.242 100.375 315.9C103.032 318.557 106.637 320.05 110.395 320.05H625.229C628.987 320.05 632.591 318.557 635.249 315.9C637.906 313.242 639.399 309.638 639.399 305.879V19.0237C639.399 17.1628 639.033 15.3201 638.321 13.6009C637.608 11.8817 636.565 10.3195 635.249 9.00369C633.933 7.68785 632.371 6.64404 630.652 5.93192C628.932 5.21979 627.09 4.85327 625.229 4.85327V4.85327Z" fill="#3F3D56"/>
    <path opacity="0.2" d="M620.397 29.8923H115.227V314.872H620.397V29.8923Z" fill="black"/>
    <path d="M367.38 22.1244C370.242 22.1244 372.561 19.8046 372.561 16.943C372.561 14.0815 370.242 11.7617 367.38 11.7617C364.518 11.7617 362.199 14.0815 362.199 16.943C362.199 19.8046 364.518 22.1244 367.38 22.1244Z" fill="#FCAB10"/>
    <path d="M733.5 349.948H0.500244V351.948H733.5V349.948Z" fill="#3F3D56"/>
    <path d="M436.832 136.366V115.282C436.832 111.885 436.163 108.521 434.863 105.382C433.563 102.244 431.658 99.3918 429.256 96.9897C426.853 94.5875 424.002 92.682 420.863 91.382C417.724 90.082 414.361 89.4128 410.963 89.4128H389.88C389.88 86.5668 380.734 84.2351 369.112 84.0141V58.5882C372.758 58.1288 376.092 56.2972 378.435 53.4662C380.779 50.6351 381.955 47.0175 381.725 43.3498C381.495 39.682 379.875 36.2398 377.197 33.7239C374.518 31.208 370.981 29.8075 367.306 29.8075C363.631 29.8075 360.094 31.208 357.416 33.7239C354.737 36.2398 353.118 39.682 352.887 43.3498C352.657 47.0175 353.834 50.6351 356.177 53.4662C358.52 56.2972 361.854 58.1288 365.5 58.5882V84.0141C353.879 84.2351 344.733 86.5668 344.733 89.4128H320.037C316.64 89.4128 313.276 90.082 310.137 91.382C306.999 92.682 304.147 94.5875 301.745 96.9897C299.343 99.3918 297.437 102.244 296.137 105.382C294.837 108.521 294.168 111.885 294.168 115.282V136.366C291.176 136.366 288.75 146.472 288.75 158.939C288.75 171.406 291.176 181.513 294.168 181.513V206.208C294.168 209.605 294.837 212.969 296.137 216.108C297.437 219.246 299.343 222.098 301.745 224.5C304.147 226.902 306.999 228.808 310.137 230.108C313.276 231.408 316.64 232.077 320.037 232.077H410.963C414.361 232.077 417.724 231.408 420.863 230.108C424.002 228.808 426.853 226.902 429.256 224.5C431.658 222.098 433.563 219.246 434.863 216.108C436.163 212.969 436.832 209.605 436.832 206.208V181.513C439.824 181.513 442.25 171.406 442.25 158.939C442.25 146.472 439.824 136.366 436.832 136.366Z" fill="#FCAB10"/>
    <path d="M325.216 97.5392H405.784C411.863 97.5392 417.694 99.9542 421.992 104.253C426.291 108.552 428.706 114.382 428.706 120.461V201.029C428.706 207.108 426.291 212.938 421.992 217.237C417.694 221.536 411.863 223.951 405.784 223.951H325.216C319.137 223.951 313.307 221.536 309.008 217.237C304.71 212.938 302.295 207.108 302.295 201.029V120.461C302.295 114.382 304.71 108.552 309.008 104.253C313.307 99.9542 319.137 97.5392 325.216 97.5392Z" fill="#3F3D56"/>
    <path d="M336.606 157.585C332.297 157.58 328.166 155.866 325.119 152.819C322.072 149.772 320.358 145.641 320.353 141.332C320.353 141.092 320.448 140.863 320.618 140.693C320.787 140.524 321.017 140.429 321.256 140.429C321.496 140.429 321.725 140.524 321.895 140.693C322.064 140.863 322.159 141.092 322.159 141.332C322.159 145.163 323.681 148.838 326.391 151.547C329.1 154.257 332.775 155.779 336.606 155.779C340.438 155.779 344.112 154.257 346.822 151.547C349.531 148.838 351.053 145.163 351.053 141.332C351.053 141.092 351.148 140.863 351.318 140.693C351.487 140.524 351.717 140.429 351.956 140.429C352.196 140.429 352.425 140.524 352.595 140.693C352.764 140.863 352.859 141.092 352.859 141.332C352.854 145.641 351.14 149.772 348.093 152.819C345.046 155.866 340.915 157.58 336.606 157.585V157.585Z" fill="#FCAB10"/>
    <path d="M365.5 188.285C362.149 188.281 358.936 186.948 356.566 184.578C354.196 182.208 352.863 178.995 352.859 175.643C352.859 175.404 352.954 175.174 353.124 175.005C353.293 174.836 353.523 174.74 353.762 174.74C354.001 174.74 354.231 174.836 354.401 175.005C354.57 175.174 354.665 175.404 354.665 175.643C354.665 178.517 355.807 181.273 357.839 183.305C359.871 185.337 362.627 186.479 365.5 186.479C368.374 186.479 371.13 185.337 373.162 183.305C375.194 181.273 376.336 178.517 376.336 175.643C376.336 175.404 376.431 175.174 376.6 175.005C376.769 174.836 376.999 174.74 377.238 174.74C377.478 174.74 377.708 174.836 377.877 175.005C378.046 175.174 378.141 175.404 378.141 175.643C378.138 178.995 376.805 182.208 374.435 184.578C372.065 186.948 368.852 188.281 365.5 188.285Z" fill="#FCAB10"/>
    <path d="M394.394 157.585C390.085 157.58 385.954 155.866 382.907 152.819C379.86 149.772 378.146 145.641 378.141 141.332C378.141 141.092 378.236 140.863 378.406 140.693C378.575 140.524 378.805 140.429 379.044 140.429C379.284 140.429 379.513 140.524 379.683 140.693C379.852 140.863 379.947 141.092 379.947 141.332C379.947 145.163 381.469 148.838 384.179 151.547C386.888 154.257 390.563 155.779 394.394 155.779C398.226 155.779 401.9 154.257 404.61 151.547C407.319 148.838 408.841 145.163 408.841 141.332C408.841 141.092 408.936 140.863 409.106 140.693C409.275 140.524 409.505 140.429 409.744 140.429C409.984 140.429 410.213 140.524 410.383 140.693C410.552 140.863 410.647 141.092 410.647 141.332C410.642 145.641 408.928 149.772 405.881 152.819C402.834 155.866 398.703 157.58 394.394 157.585V157.585Z" fill="#FCAB10"/>
    <path d="M336.606 150.361C341.094 150.361 344.733 146.723 344.733 142.235C344.733 137.747 341.094 134.108 336.606 134.108C332.118 134.108 328.48 137.747 328.48 142.235C328.48 146.723 332.118 150.361 336.606 150.361Z" fill="#FCAB10"/>
    <path d="M394.394 150.361C398.882 150.361 402.521 146.723 402.521 142.235C402.521 137.747 398.882 134.108 394.394 134.108C389.906 134.108 386.268 137.747 386.268 142.235C386.268 146.723 389.906 150.361 394.394 150.361Z" fill="#FCAB10"/>
    <path d="M365.5 183.77C369.49 183.77 372.724 182.153 372.724 180.158C372.724 178.163 369.49 176.546 365.5 176.546C361.511 176.546 358.277 178.163 358.277 180.158C358.277 182.153 361.511 183.77 365.5 183.77Z" fill="#FCAB10"/>
    <path d="M653.583 309.687H604.281V306.135C604.281 306.043 604.263 305.951 604.228 305.866C604.192 305.78 604.14 305.703 604.075 305.637C604.01 305.572 603.932 305.52 603.847 305.484C603.761 305.449 603.67 305.431 603.577 305.431H586.673C586.581 305.431 586.489 305.449 586.404 305.484C586.318 305.52 586.241 305.572 586.175 305.637C586.11 305.703 586.058 305.78 586.023 305.866C585.987 305.951 585.969 306.043 585.969 306.135V309.687H575.404V306.135C575.404 306.043 575.386 305.951 575.351 305.866C575.315 305.78 575.264 305.703 575.198 305.637C575.133 305.572 575.055 305.52 574.97 305.484C574.884 305.449 574.793 305.431 574.7 305.431H557.797C557.704 305.431 557.612 305.449 557.527 305.484C557.442 305.52 557.364 305.572 557.298 305.637C557.233 305.703 557.181 305.78 557.146 305.866C557.11 305.951 557.092 306.043 557.092 306.135V309.687H546.527V306.135C546.527 306.043 546.509 305.951 546.474 305.866C546.438 305.78 546.387 305.703 546.321 305.637C546.256 305.572 546.178 305.52 546.093 305.484C546.007 305.449 545.916 305.431 545.823 305.431H528.92C528.827 305.431 528.735 305.449 528.65 305.484C528.565 305.52 528.487 305.572 528.422 305.637C528.356 305.703 528.304 305.78 528.269 305.866C528.233 305.951 528.215 306.043 528.215 306.135V309.687H517.65V306.135C517.65 306.043 517.632 305.951 517.597 305.866C517.561 305.78 517.51 305.703 517.444 305.637C517.379 305.572 517.301 305.52 517.216 305.484C517.13 305.449 517.039 305.431 516.946 305.431H500.043C499.95 305.431 499.859 305.449 499.773 305.484C499.688 305.52 499.61 305.572 499.545 305.637C499.479 305.703 499.427 305.78 499.392 305.866C499.356 305.951 499.338 306.043 499.338 306.135V309.687H488.773V306.135C488.774 306.043 488.755 305.951 488.72 305.866C488.685 305.78 488.633 305.703 488.567 305.637C488.502 305.572 488.424 305.52 488.339 305.484C488.253 305.449 488.162 305.431 488.069 305.431H471.166C471.073 305.431 470.982 305.449 470.896 305.484C470.811 305.52 470.733 305.572 470.668 305.637C470.602 305.703 470.55 305.78 470.515 305.866C470.479 305.951 470.461 306.043 470.461 306.135V309.687H459.897V306.135C459.897 306.043 459.878 305.951 459.843 305.866C459.808 305.78 459.756 305.703 459.69 305.637C459.625 305.572 459.547 305.52 459.462 305.484C459.376 305.449 459.285 305.431 459.192 305.431H442.289C442.196 305.431 442.105 305.449 442.019 305.484C441.934 305.52 441.856 305.572 441.791 305.637C441.725 305.703 441.673 305.78 441.638 305.866C441.603 305.951 441.584 306.043 441.584 306.135V309.687H431.02V306.135C431.02 306.043 431.001 305.951 430.966 305.866C430.931 305.78 430.879 305.703 430.813 305.637C430.748 305.572 430.67 305.52 430.585 305.484C430.499 305.449 430.408 305.431 430.315 305.431H297.904C297.811 305.431 297.72 305.449 297.634 305.484C297.549 305.52 297.471 305.572 297.406 305.637C297.34 305.703 297.289 305.78 297.253 305.866C297.218 305.951 297.2 306.043 297.2 306.135V309.687H286.635V306.135C286.635 306.043 286.617 305.951 286.581 305.866C286.546 305.78 286.494 305.703 286.429 305.637C286.363 305.572 286.286 305.52 286.2 305.484C286.115 305.449 286.023 305.431 285.931 305.431H269.027C268.934 305.431 268.843 305.449 268.757 305.484C268.672 305.52 268.594 305.572 268.529 305.637C268.464 305.703 268.412 305.78 268.376 305.866C268.341 305.951 268.323 306.043 268.323 306.135V309.687H257.758V306.135C257.758 306.043 257.74 305.951 257.704 305.866C257.669 305.78 257.617 305.703 257.552 305.637C257.486 305.572 257.409 305.52 257.323 305.484C257.238 305.449 257.146 305.431 257.054 305.431H240.15C240.058 305.431 239.966 305.449 239.88 305.484C239.795 305.52 239.717 305.572 239.652 305.637C239.587 305.703 239.535 305.78 239.499 305.866C239.464 305.951 239.446 306.043 239.446 306.135V309.687H228.881V306.135C228.881 306.043 228.863 305.951 228.827 305.866C228.792 305.78 228.74 305.703 228.675 305.637C228.609 305.572 228.532 305.52 228.446 305.484C228.361 305.449 228.269 305.431 228.177 305.431H211.273C211.181 305.431 211.089 305.449 211.004 305.484C210.918 305.52 210.84 305.572 210.775 305.637C210.71 305.703 210.658 305.78 210.622 305.866C210.587 305.951 210.569 306.043 210.569 306.135V309.687H200.004V306.135C200.004 306.043 199.986 305.951 199.95 305.866C199.915 305.78 199.863 305.703 199.798 305.637C199.732 305.572 199.655 305.52 199.569 305.484C199.484 305.449 199.392 305.431 199.3 305.431H182.396C182.304 305.431 182.212 305.449 182.127 305.484C182.041 305.52 181.963 305.572 181.898 305.637C181.833 305.703 181.781 305.78 181.745 305.866C181.71 305.951 181.692 306.043 181.692 306.135V309.687H171.127V306.135C171.127 306.043 171.109 305.951 171.073 305.866C171.038 305.78 170.986 305.703 170.921 305.637C170.855 305.572 170.778 305.52 170.692 305.484C170.607 305.449 170.515 305.431 170.423 305.431H153.519C153.427 305.431 153.335 305.449 153.25 305.484C153.164 305.52 153.087 305.572 153.021 305.637C152.956 305.703 152.904 305.78 152.868 305.866C152.833 305.951 152.815 306.043 152.815 306.135V309.687H142.25V306.135C142.25 306.043 142.232 305.951 142.196 305.866C142.161 305.78 142.109 305.703 142.044 305.637C141.978 305.572 141.901 305.52 141.815 305.484C141.73 305.449 141.638 305.431 141.546 305.431H124.642C124.55 305.431 124.458 305.449 124.373 305.484C124.287 305.52 124.21 305.572 124.144 305.637C124.079 305.703 124.027 305.78 123.991 305.866C123.956 305.951 123.938 306.043 123.938 306.135V309.687H91.5393C89.3195 309.687 87.1215 310.125 85.0706 310.974C83.0198 311.824 81.1563 313.069 79.5867 314.638C78.017 316.208 76.7719 318.071 75.9225 320.122C75.073 322.173 74.6357 324.371 74.6357 326.591V334.234C74.6358 338.717 76.4167 343.017 79.5867 346.187C82.7567 349.357 87.0562 351.138 91.5393 351.138H653.583C658.067 351.138 662.366 349.357 665.536 346.187C668.706 343.017 670.487 338.717 670.487 334.234V326.591C670.487 324.371 670.05 322.173 669.2 320.122C668.351 318.071 667.106 316.208 665.536 314.638C663.966 313.069 662.103 311.824 660.052 310.974C658.001 310.125 655.803 309.687 653.583 309.687V309.687Z" fill="#3F3D56"/>
    <path d="M529.5 230.948H192.5V232.948H529.5V230.948Z" fill="#FCAB10"/>
    <path d="M216.5 229.948H133.5C136.156 198.671 136.156 167.225 133.5 135.948H216.5C211.93 168.142 211.663 199.526 216.5 229.948Z" fill="#D0CDE1"/>
    <path d="M169.681 182.335C168.006 182.335 166.683 183.939 166.683 185.896C166.683 187.853 168.035 189.457 169.681 189.457C171.356 189.457 172.678 187.853 172.678 185.896C172.708 183.939 171.356 182.335 169.681 182.335ZM180.407 182.335C178.732 182.335 177.41 183.939 177.41 185.896C177.41 187.853 178.762 189.457 180.407 189.457C182.082 189.457 183.405 187.853 183.405 185.896C183.405 183.939 182.082 182.335 180.407 182.335Z" fill="#7289DA"/>
    <path d="M194.69 155.417H155.31C151.989 155.417 149.286 158.368 149.286 162.026V205.403C149.286 209.06 151.989 212.012 155.31 212.012H188.636L187.078 206.076L190.84 209.894L194.396 213.488L200.714 219.583V162.026C200.714 158.368 198.011 155.417 194.69 155.417ZM183.346 197.318C183.346 197.318 182.288 195.938 181.407 194.719C185.256 193.532 186.726 190.901 186.726 190.901C185.521 191.767 184.375 192.377 183.346 192.794C181.877 193.468 180.466 193.917 179.085 194.173C176.264 194.751 173.678 194.59 171.473 194.141C169.798 193.788 168.358 193.275 167.153 192.762C166.478 192.473 165.743 192.12 165.008 191.671C164.92 191.607 164.832 191.575 164.744 191.51C164.685 191.478 164.656 191.446 164.626 191.414C164.097 191.093 163.803 190.869 163.803 190.869C163.803 190.869 165.214 193.435 168.946 194.655C168.064 195.874 166.977 197.318 166.977 197.318C160.482 197.093 158.014 192.441 158.014 192.441C158.014 182.11 162.246 173.736 162.246 173.736C166.478 170.271 170.504 170.368 170.504 170.368L170.798 170.753C165.508 172.421 163.069 174.955 163.069 174.955C163.069 174.955 163.715 174.57 164.802 174.025C167.947 172.517 170.445 172.1 171.473 172.004C171.65 171.972 171.797 171.94 171.973 171.94C173.766 171.683 175.793 171.619 177.909 171.875C180.701 172.228 183.699 173.127 186.755 174.955C186.755 174.955 184.433 172.549 179.438 170.881L179.849 170.368C179.849 170.368 183.875 170.271 188.107 173.736C188.107 173.736 192.339 182.11 192.339 192.441C192.339 192.441 189.841 197.093 183.346 197.318V197.318Z" fill="#7289DA"/>
</svg>
