<svg width="400" height="300" viewBox="0 0 400 300" fill="none" xmlns="http://www.w3.org/2000/svg">
<path opacity="0.42" d="M90.59 279.55C90.59 279.55 58.28 281.81 45 276.36C31.72 270.91 41.26 255.26 54.19 251.85C67.12 248.44 74.96 267.17 80.74 249.85C86.52 232.53 101.62 223.9 111.27 235.68C120.92 247.46 130.79 251.21 141 240.68C151.21 230.15 160.62 238.75 164.77 254.18C168.92 269.61 216.91 240 235.3 245.78C253.69 251.56 267.64 268.59 278.87 250.21C290.1 231.83 303.38 227.06 310.87 237.95C318.36 248.84 320.74 261.78 334.02 251.95C347.3 242.12 365.34 250.95 360.23 262.5C355.12 274.05 320.9 277.98 320.9 277.98C320.9 277.98 122.22 268.1 90.59 279.55Z" fill="#E6E6E6"/>
<path d="M187.46 221C187.46 221 194.62 244.93 180.66 252C166.7 259.07 158.28 248.06 143.72 257.76C129.16 267.46 136.83 233.76 114.62 235.29C92.41 236.82 100.74 254.43 100.74 254.43C100.74 254.43 81.6 235.74 71.68 252C61.76 268.26 66.55 283.54 111.27 278.94C155.99 274.34 188.8 280.6 227.54 279.77C266.28 278.94 337.54 286.6 341.34 265.16C345.14 243.72 325.26 234.21 304.57 246.23C283.88 258.25 287.35 230.55 263.41 243.23C239.47 255.91 211.15 270.51 203.91 214.43L187.46 221Z" fill="#E6E6E6"/>
<path d="M138.73 30.61C87.47 41.91 53.32 91.38 62.78 143C67.29 167.64 81.78 192.09 118.19 203.5C205.57 230.9 304.06 217.23 321.43 163.3C338.8 109.37 327.55 74.65 285.17 47.59C257.79 30.11 192.28 18.81 138.73 30.61Z" fill="#3F3D56"/>
<path d="M172.66 133.56L131.66 179.31H176.32L172.66 133.56Z" fill="#2B9EB3"/>
<path d="M222.73 133.56L263.73 179.31H219.07L222.73 133.56Z" fill="#2B9EB3"/>
<path d="M196.81 60.35V60.08L196.67 60.22L196.53 60.08V60.36C192.97 63.94 157.23 103.16 177.82 214.43H217.4C238 103 200.47 63.86 196.81 60.35Z" fill="#2B9EB3"/>
<path opacity="0.11" d="M220.76 116.85L221.9 124.73C211.205 129.167 199.616 131.028 188.07 130.16C184.99 129.882 181.89 130.387 179.058 131.628C176.225 132.869 173.753 134.807 171.87 137.26C171.87 137.26 173 121 173.81 117.31L220.76 116.85Z" fill="#3B1E59"/>
<path opacity="0.7" d="M196.81 60.35V60.08L196.67 60.22L196.53 60.08V60.36C192.97 63.94 157.23 103.16 177.82 214.43H217.4C238 103 200.47 63.86 196.81 60.35Z" fill="white"/>
<path opacity="0.08" d="M182.91 153.37L171.91 165.76C172.174 176.796 173.287 187.795 175.24 198.66L203.05 178L182.91 153.37Z" fill="black"/>
<path d="M176.32 205.86L177.82 214.43H217.76L219.33 205.86H176.32Z" fill="#FFD200"/>
<path d="M175.76 107.13L175.68 107.37C174.558 110.313 173.965 113.431 173.93 116.58L173.81 117.31C173.81 117.31 196.02 129.93 220.76 116.85C220.882 116.414 220.939 115.963 220.93 115.51C220.839 112.625 220.208 109.783 219.07 107.13H175.76Z" fill="#FFD200"/>
<path d="M176.32 205.86L177.82 214.43H217.76L219.33 205.86H176.32Z" fill="#2B9EB3"/>
<path d="M175.76 107.13L175.68 107.37C174.558 110.313 173.965 113.431 173.93 116.58L173.81 117.31C173.81 117.31 196.02 129.93 220.76 116.85C220.882 116.414 220.939 115.963 220.93 115.51C220.839 112.625 220.208 109.783 219.07 107.13H175.76Z" fill="#2B9EB3"/>
<path opacity="0.08" d="M176.32 205.86L177.82 214.43H217.76L219.33 205.86H176.32Z" fill="black"/>
<path opacity="0.08" d="M175.76 107.13L175.68 107.37C174.558 110.313 173.965 113.431 173.93 116.58L173.81 117.31C173.81 117.31 196.02 129.93 220.76 116.85C220.882 116.414 220.939 115.963 220.93 115.51C220.839 112.625 220.208 109.783 219.07 107.13H175.76Z" fill="black"/>
<path d="M175.76 107.13C175.76 107.13 196.76 116.9 219.07 107.13C219.07 107.13 215.94 76.51 201.07 58.9C200.621 58.3705 200.06 57.947 199.428 57.66C198.796 57.373 198.108 57.2297 197.414 57.2402C196.72 57.2507 196.037 57.4149 195.414 57.7209C194.79 58.0269 194.243 58.4671 193.81 59.01C188.89 65.18 180.27 79.43 175.76 107.13Z" fill="#2B9EB3"/>
<path d="M197.91 179.31C207.437 179.31 215.16 171.587 215.16 162.06C215.16 152.533 207.437 144.81 197.91 144.81C188.383 144.81 180.66 152.533 180.66 162.06C180.66 171.587 188.383 179.31 197.91 179.31Z" fill="#2B9EB3"/>
<path d="M197.91 172.59C203.726 172.59 208.44 167.876 208.44 162.06C208.44 156.244 203.726 151.53 197.91 151.53C192.094 151.53 187.38 156.244 187.38 162.06C187.38 167.876 192.094 172.59 197.91 172.59Z" fill="#24285B"/>
<path opacity="0.16" d="M200.38 162.06C202.429 162.06 204.09 160.399 204.09 158.35C204.09 156.301 202.429 154.64 200.38 154.64C198.331 154.64 196.67 156.301 196.67 158.35C196.67 160.399 198.331 162.06 200.38 162.06Z" fill="white"/>
<path d="M177.82 214.43L153.99 243.23L203.91 226.07V214.43H177.82Z" fill="#2B9EB3"/>
<path d="M217.57 214.43L241.4 243.23L191.49 226.07V214.43H217.57Z" fill="#2B9EB3"/>
<path d="M95.02 144.26C96.8039 144.26 98.25 142.814 98.25 141.03C98.25 139.246 96.8039 137.8 95.02 137.8C93.2361 137.8 91.79 139.246 91.79 141.03C91.79 142.814 93.2361 144.26 95.02 144.26Z" fill="white"/>
<path d="M168.23 48.27C170.014 48.27 171.46 46.8239 171.46 45.04C171.46 43.2561 170.014 41.81 168.23 41.81C166.446 41.81 165 43.2561 165 45.04C165 46.8239 166.446 48.27 168.23 48.27Z" fill="white"/>
<path d="M252.13 115.03C253.914 115.03 255.36 113.584 255.36 111.8C255.36 110.016 253.914 108.57 252.13 108.57C250.346 108.57 248.9 110.016 248.9 111.8C248.9 113.584 250.346 115.03 252.13 115.03Z" fill="white"/>
<path d="M241.25 52.39C242.106 52.39 242.8 51.696 242.8 50.84C242.8 49.984 242.106 49.29 241.25 49.29C240.394 49.29 239.7 49.984 239.7 50.84C239.7 51.696 240.394 52.39 241.25 52.39Z" fill="white"/>
<path d="M310.37 130.15C311.226 130.15 311.92 129.456 311.92 128.6C311.92 127.744 311.226 127.05 310.37 127.05C309.514 127.05 308.82 127.744 308.82 128.6C308.82 129.456 309.514 130.15 310.37 130.15Z" fill="white"/>
<path d="M275.81 193.15C276.666 193.15 277.36 192.456 277.36 191.6C277.36 190.744 276.666 190.05 275.81 190.05C274.954 190.05 274.26 190.744 274.26 191.6C274.26 192.456 274.954 193.15 275.81 193.15Z" fill="white"/>
<path d="M151.14 197.36C151.996 197.36 152.69 196.666 152.69 195.81C152.69 194.954 151.996 194.26 151.14 194.26C150.284 194.26 149.59 194.954 149.59 195.81C149.59 196.666 150.284 197.36 151.14 197.36Z" fill="white"/>
<path opacity="0.08" d="M130.23 120.66C147.898 120.66 162.22 106.338 162.22 88.67C162.22 71.0024 147.898 56.68 130.23 56.68C112.562 56.68 98.24 71.0024 98.24 88.67C98.24 106.338 112.562 120.66 130.23 120.66Z" fill="white"/>
<path d="M130.23 114.03C144.236 114.03 155.59 102.676 155.59 88.67C155.59 74.6641 144.236 63.31 130.23 63.31C116.224 63.31 104.87 74.6641 104.87 88.67C104.87 102.676 116.224 114.03 130.23 114.03Z" fill="#FFD200"/>
<path opacity="0.08" d="M121.43 82.85C124.368 82.85 126.75 80.4682 126.75 77.53C126.75 74.5918 124.368 72.21 121.43 72.21C118.492 72.21 116.11 74.5918 116.11 77.53C116.11 80.4682 118.492 82.85 121.43 82.85Z" fill="black"/>
<path opacity="0.08" d="M137.41 80.73C139.371 80.73 140.96 79.1406 140.96 77.18C140.96 75.2194 139.371 73.63 137.41 73.63C135.449 73.63 133.86 75.2194 133.86 77.18C133.86 79.1406 135.449 80.73 137.41 80.73Z" fill="black"/>
</svg>

