<svg viewBox="0 0 734 109" fill="none" xmlns="http://www.w3.org/2000/svg">
    <path d="M0 32.7L17.8884 43.6C35.7768 54.5 71.4493 76.3 107.435 79.9447C143.055 83.4531 178.884 69.1469 214.348 56.3053C250.333 43.6 286.319 32.7 321.783 38.15C357.612 43.6 393.232 65.4 429.217 69.0447C464.89 72.5531 500.667 58.2469 536.652 58.1447C572.168 58.2469 608.101 72.5531 643.565 78.1053C679.499 83.4531 715.015 80.0469 733.268 78.1053L751 76.3V0H733.112C715.223 0 679.551 0 643.565 0C607.945 0 572.116 0 536.652 0C500.667 0 464.681 0 429.217 0C393.388 0 357.768 0 321.783 0C286.11 0 250.333 0 214.348 0C178.832 0 142.899 0 107.435 0C71.5015 0 35.9854 0 17.7319 0H0V32.7Z" fill="#3F3D56"/>
</svg>
